<?xml version="1.0" encoding="utf-8"?>
<!-- Generator: Adobe Illustrator 24.1.0, SVG Export Plug-In . SVG Version: 6.00 Build 0)  -->
<svg version="1.1" id="Layer_1" xmlns="http://www.w3.org/2000/svg" xmlns:xlink="http://www.w3.org/1999/xlink" x="0px" y="0px"
	 viewBox="0 0 24 24" style="enable-background:new 0 0 24 24;" xml:space="preserve">
<style type="text/css">
	.st0{fill-rule:evenodd;clip-rule:evenodd;fill:#4285F4;}
	.st1{fill-rule:evenodd;clip-rule:evenodd;fill:#34A853;}
	.st2{fill-rule:evenodd;clip-rule:evenodd;fill:#FBBC05;}
	.st3{fill-rule:evenodd;clip-rule:evenodd;fill:#EA4335;}
	.st4{fill:none;}
</style>
<g transform="translate(15.000000, 15.000000)">
	<path class="st0" d="M8.5-2.7c0-0.8-0.1-1.7-0.3-2.4H-3v4.7h6.4C3.1,1,2.3,2.2,1,3.1v3.1h4C7.3,4.1,8.5,0.9,8.5-2.7L8.5-2.7z"/>
	<path class="st1" d="M-3,9c3.2,0,6-1.1,8-2.9L1,3.1c-1.1,0.7-2.4,1.2-4,1.2c-3.1,0-5.7-2.1-6.7-4.9h-4v2.9C-11.8,6.3-7.7,9-3,9
		L-3,9z"/>
	<path class="st2" d="M-9.7-0.7c-0.3-0.7-0.4-1.5-0.4-2.3s0.1-1.6,0.4-2.3v-3.1h-4C-14.5-6.7-15-4.9-15-3s0.4,3.7,1.3,5.3L-9.7-0.7
		L-9.7-0.7z"/>
	<path class="st3" d="M-3-10.2c1.7,0,3.3,0.7,4.5,1.7L5-11.9C3-13.8,0.2-15-3-15c-4.7,0-8.8,2.7-10.7,6.7l4,3.1
		C-8.7-8.1-6.1-10.2-3-10.2L-3-10.2z"/>
	<path class="st4" d="M-15-15H9V9h-24V-15z"/>
</g>
</svg>
