<?xml version="1.0" encoding="utf-8"?>
<!-- Generator: Adobe Illustrator 24.1.0, SVG Export Plug-In . SVG Version: 6.00 Build 0)  -->
<svg version="1.1" id="Layer_1" xmlns="http://www.w3.org/2000/svg" xmlns:xlink="http://www.w3.org/1999/xlink" x="0px" y="0px"
	 viewBox="0 0 24 24" style="enable-background:new 0 0 24 24;" xml:space="preserve">
<path d="M10.9,15H9.7c-0.2,0-0.4,0.2-0.4,0.4c0,0.2,0.2,0.4,0.4,0.4h1.2c0.2,0,0.4-0.2,0.4-0.4C11.3,15.1,11.1,15,10.9,15z"/>
<path d="M10.9,17.2c0.2,0,0.4-0.2,0.4-0.4c0-0.2-0.2-0.4-0.4-0.4H9.7c-0.2,0-0.4,0.2-0.4,0.4c0,0.2,0.2,0.4,0.4,0.4H10.9z"/>
<path d="M2.1,1.2c-0.6,0-1,0.5-1,1c0,0.6,0.5,1,1,1c0.6,0,1-0.5,1-1C3.2,1.6,2.7,1.2,2.1,1.2z M2.1,2.5c-0.2,0-0.3-0.1-0.3-0.3
	c0-0.2,0.1-0.3,0.3-0.3c0.2,0,0.3,0.1,0.3,0.3C2.4,2.4,2.3,2.5,2.1,2.5z"/>
<path d="M4.7,1.2c-0.6,0-1,0.5-1,1c0,0.6,0.5,1,1,1c0.6,0,1-0.5,1-1C5.8,1.6,5.3,1.2,4.7,1.2z M4.7,2.5c-0.2,0-0.3-0.1-0.3-0.3
	c0-0.2,0.1-0.3,0.3-0.3c0.2,0,0.3,0.1,0.3,0.3C5.1,2.4,4.9,2.5,4.7,2.5z"/>
<path d="M7.4,1.2c-0.6,0-1,0.5-1,1c0,0.6,0.5,1,1,1c0.6,0,1-0.5,1-1C8.4,1.6,7.9,1.2,7.4,1.2z M7.4,2.5C7.2,2.5,7,2.4,7,2.2
	C7,2,7.2,1.9,7.4,1.9S7.7,2,7.7,2.2C7.7,2.4,7.6,2.5,7.4,2.5z"/>
<path d="M7.3,11.8H3.3c-0.6,0-1,0.5-1,1v3.5c0,0.6,0.5,1,1,1h3.9c0.6,0,1-0.5,1-1v-3.5C8.3,12.3,7.8,11.8,7.3,11.8z M7,12.5
	l-1.8,1.6l-1.8-1.6H7z M3,16.1V13l1.8,1.6L3,16.1z M3.4,16.7L5.3,15l1.9,1.7H3.4z M7.6,16.1l-1.8-1.6L7.6,13V16.1z"/>
<path d="M11.3,12H9.7c-0.2,0-0.4,0.2-0.4,0.4c0,0.2,0.2,0.4,0.4,0.4h1.6c0.2,0,0.4-0.2,0.4-0.4C11.6,12.2,11.4,12,11.3,12z"/>
<path d="M18,12.7h1c0.2,0,0.4-0.2,0.4-0.4c0-0.2-0.2-0.4-0.4-0.4h-1c-0.2,0-0.4,0.2-0.4,0.4C17.6,12.5,17.8,12.7,18,12.7z"/>
<path d="M11.6,13.9c0-0.2-0.2-0.4-0.4-0.4H9.7c-0.2,0-0.4,0.2-0.4,0.4c0,0.2,0.2,0.4,0.4,0.4h1.6C11.4,14.2,11.6,14.1,11.6,13.9z"/>
<path d="M9.8,7.1h1c0.2,0,0.4-0.2,0.4-0.4S11,6.4,10.9,6.4h-1c-0.2,0-0.4,0.2-0.4,0.4S9.6,7.1,9.8,7.1z"/>
<path d="M18.6,6.7c0-0.2-0.2-0.4-0.4-0.4H12c-0.2,0-0.4,0.2-0.4,0.4s0.2,0.4,0.4,0.4h6.2C18.4,7.1,18.6,6.9,18.6,6.7z"/>
<path d="M15,8.9h2.3c0.2,0,0.4-0.2,0.4-0.4c0-0.2-0.2-0.4-0.4-0.4H15c-0.2,0-0.4,0.2-0.4,0.4C14.7,8.7,14.8,8.9,15,8.9z"/>
<path d="M13.1,8.2c-0.2,0-0.4,0.2-0.4,0.4c0,0.2,0.2,0.4,0.4,0.4h0.7c0.2,0,0.4-0.2,0.4-0.4c0-0.2-0.2-0.4-0.4-0.4H13.1z"/>
<path d="M12.3,8.5c0-0.2-0.2-0.4-0.4-0.4H9.8c-0.2,0-0.4,0.2-0.4,0.4c0,0.2,0.2,0.4,0.4,0.4H12C12.2,8.9,12.3,8.7,12.3,8.5z"/>
<path d="M3.2,7.3V6.8c0-0.2,0.1-0.3,0.2-0.4c0.1,0,0.1,0,0.2-0.1c0.2,0,0.3-0.2,0.3-0.3v0c0-0.2-0.2-0.3-0.3-0.3h0
	C3.1,5.6,2.5,6,2.5,6.8v0.3L2.1,7.3C2,7.4,1.9,7.6,1.9,7.8C2,8,2,8.1,2.2,8.1l0.3,0.2v0.3c0,0.8,0.6,1.2,1.1,1.2c0,0,0,0,0,0
	c0.2,0,0.3-0.2,0.4-0.3c0-0.2-0.1-0.4-0.3-0.4c0,0-0.1,0-0.2-0.1C3.3,9,3.2,8.9,3.2,8.7V8.2c0-0.1-0.1-0.2-0.2-0.3L2.8,7.7L3,7.6
	C3.1,7.5,3.2,7.4,3.2,7.3z"/>
<path d="M4.2,9C4.1,9,4,9,3.9,8.9C3.9,8.9,3.8,8.8,3.8,8.7c0-0.1,0-0.1,0.1-0.2c0,0,0,0,0-0.1C4,8.4,4.1,8.3,4.2,8.3
	c0.1,0,0.2,0,0.2,0.1c0.1,0.1,0.1,0.2,0.1,0.2c0,0.1,0,0.2-0.1,0.2C4.4,9,4.3,9,4.2,9z"/>
<path d="M8.7,7.3L8.4,7.1V6.8c0-0.8-0.6-1.2-1.1-1.2h0C7.1,5.6,7,5.8,7,6v0c0,0.2,0.1,0.3,0.3,0.3c0.1,0,0.1,0,0.2,0.1
	c0.2,0.1,0.2,0.3,0.2,0.4v0.5c0,0.1,0.1,0.2,0.2,0.3L8,7.7L7.8,7.9C7.7,7.9,7.7,8.1,7.7,8.2v0.5c0,0.3-0.1,0.4-0.2,0.4
	C7.4,9.1,7.3,9.1,7.3,9.1C7.1,9.1,7,9.3,7,9.5c0,0.2,0.2,0.3,0.4,0.3c0,0,0,0,0,0c0.4,0,1.1-0.3,1.1-1.2V8.4l0.3-0.2
	C8.8,8.1,8.9,8,8.9,7.8C9,7.6,8.9,7.4,8.7,7.3z"/>
<path d="M5.7,8.5C5.6,8.4,5.5,8.4,5.5,8.3c0,0-0.1,0-0.1,0c0,0,0,0-0.1,0c-0.1,0-0.1,0.1-0.2,0.1C5,8.6,5,8.8,5.1,8.9
	C5.2,9,5.2,9,5.3,9c0.1,0,0.1,0,0.2,0c0,0,0.1,0,0.1,0c0.1-0.1,0.2-0.2,0.2-0.4C5.7,8.6,5.7,8.5,5.7,8.5z"/>
<path d="M6.9,8.5C6.8,8.4,6.7,8.3,6.6,8.3c-0.1,0-0.2,0-0.2,0.1c0,0-0.1,0.1-0.1,0.1c-0.1,0.1,0,0.3,0.1,0.4C6.4,9,6.5,9,6.6,9
	c0.1,0,0.2,0,0.2-0.1C7,8.8,7,8.6,6.9,8.5z"/>
<path d="M7.8,20.5H1.4c-0.4,0-0.7-0.3-0.7-0.7V4.3h19.8v3.1c0,0.2,0.2,0.4,0.4,0.4c0.2,0,0.4-0.2,0.4-0.4v-6c0-0.8-0.6-1.4-1.4-1.4
	H1.4C0.6,0,0,0.6,0,1.4v18.4c0,0.8,0.6,1.4,1.4,1.4h6.4c0.2,0,0.4-0.2,0.4-0.4C8.1,20.7,8,20.5,7.8,20.5z M0.7,1.4
	C0.7,1,1,0.7,1.4,0.7h18.4c0.4,0,0.7,0.3,0.7,0.7v2.2H0.7V1.4z"/>
<path d="M23.4,18.8h-2.6l1.9-1.9c0.2-0.2,0.2-0.7,0-0.9l-1.4-1.4V9.6c0-0.2-0.2-0.4-0.4-0.4c-0.2,0-0.4,0.2-0.4,0.4V14l-0.6-0.6
	c-0.2-0.2-0.7-0.2-0.9,0l-1.9,1.9v-2.6c0-0.4-0.3-0.6-0.6-0.6h-3.9c-0.4,0-0.6,0.3-0.6,0.6v3.5c0,0,0,0,0,0s0,0,0,0v4.4h-2
	c-0.2,0-0.4,0.2-0.4,0.4c0,0.2,0.2,0.4,0.4,0.4h2v0.1c0,0.7,0.2,1.4,0.7,1.9c0.5,0.5,1.1,0.8,1.8,0.8c0,0,0,0,0.1,0h5.4c0,0,0,0,0,0
	s0,0,0,0h3.5c0.4,0,0.6-0.3,0.6-0.6v-3.9C24,19.1,23.7,18.8,23.4,18.8z M12.7,12.7h3.8v3.1h-3.8V12.7z M12.7,16.5h3.2l-2.8,2.8
	c-0.1,0.1-0.2,0.2-0.3,0.2h-0.1V16.5z M15.8,23.3h-1.3c-1,0-1.8-0.8-1.8-1.8v-0.2c0-1,0.8-1.8,1.8-1.8h1.3V23.3z M14.7,18.8
	l-0.1-0.1l2.2-2.2l2.3,2.3H14.7z M19.5,23.3h-3.1v-3.8h3.1V23.3z M17.3,16l2.2-2.2l2.7,2.7l-2.2,2.2L17.3,16z M23.3,23.3h-3.1v-3.8
	h3.1V23.3z"/>
<path d="M13.1,21.4c0,0.6,0.5,1.1,1.1,1.1c0.6,0,1.1-0.5,1.1-1.1c0-0.6-0.5-1.1-1.1-1.1C13.6,20.3,13.1,20.8,13.1,21.4z M14.6,21.4
	c0,0.2-0.2,0.4-0.4,0.4c-0.2,0-0.4-0.2-0.4-0.4c0-0.2,0.2-0.4,0.4-0.4C14.4,21,14.6,21.2,14.6,21.4z"/>
</svg>
